<?xml version="1.0" standalone="no"?>
<!DOCTYPE svg PUBLIC "-//W3C//DTD SVG 20010904//EN"
 "http://www.w3.org/TR/2001/REC-SVG-20010904/DTD/svg10.dtd">
<svg version="1.0" xmlns="http://www.w3.org/2000/svg"
 width="600.000000pt" height="1200.000000pt" viewBox="0 0 600.000000 1200.000000"
 preserveAspectRatio="xMidYMid meet">
<g transform="translate(0.000000,1200.000000) scale(0.100000,-0.100000)"
fill="#c9a24d" stroke="none">
<path d="M3104 10005 c-4 -9 -5 -292 -2 -630 3 -478 1 -612 -8 -604 -7 5 -15
22 -19 37 -14 58 -91 178 -154 242 -122 123 -253 194 -426 231 -107 23 -238
39 -324 39 -137 1 -365 26 -443 48 -112 33 -179 82 -249 181 -23 32 -33 40
-39 30 -11 -22 18 -399 40 -524 5 -27 14 -79 21 -115 6 -36 18 -90 26 -120 8
-30 18 -68 23 -85 52 -198 182 -480 283 -615 70 -94 218 -231 306 -284 170
-102 393 -149 558 -117 252 50 305 51 351 9 36 -34 62 -92 62 -140 0 -57 9
-88 25 -88 8 0 16 8 19 18 3 9 6 575 8 1257 l3 1240 -28 3 c-18 2 -29 -2 -33
-13z m-1568 -622 c35 -96 101 -169 187 -211 98 -47 167 -60 497 -92 221 -22
356 -59 499 -137 103 -56 228 -177 286 -277 41 -72 60 -74 29 -3 -33 75 -112
184 -174 239 -155 137 -323 199 -615 228 -256 25 -375 41 -426 56 -100 29
-213 108 -248 172 -17 32 -14 32 34 6 24 -14 68 -34 98 -44 69 -24 266 -50
387 -50 170 -1 378 -31 500 -73 257 -89 426 -289 494 -587 26 -114 26 -117 24
-488 l-3 -372 -35 23 c-64 43 -108 49 -207 32 -160 -29 -207 -35 -298 -34 -82
0 -118 4 -210 24 -57 13 -213 95 -277 145 -194 155 -350 414 -463 769 -14 46
-30 102 -35 125 -4 22 -13 66 -20 96 -51 244 -77 500 -51 500 5 0 17 -21 27
-47z"/>
<path d="M1675 8919 c-4 -12 -2 -26 4 -32 6 -6 11 -23 11 -39 0 -26 13 -79 60
-243 18 -65 54 -154 97 -245 145 -302 387 -518 599 -534 67 -6 68 -5 27 7 -23
6 -45 15 -49 20 -4 4 -15 7 -24 7 -22 0 -135 58 -185 94 -65 48 -172 162 -224
239 -69 104 -146 256 -182 362 -7 22 -17 44 -21 50 -4 5 -8 17 -8 27 0 10 -4
26 -9 36 -14 29 -31 87 -31 110 0 11 -4 24 -10 27 -5 3 -10 19 -10 34 0 27
-25 101 -34 101 -3 0 -8 -9 -11 -21z"/>
<path d="M1887 8733 c20 -57 76 -112 151 -149 47 -24 52 -29 52 -60 0 -60 53
-159 121 -225 122 -118 243 -148 522 -129 113 8 179 9 217 2 30 -6 63 -12 72
-14 32 -6 23 15 -15 35 -74 38 -150 48 -285 36 -279 -24 -468 53 -547 223 -43
92 -41 95 73 101 53 3 122 10 152 16 220 42 355 14 477 -102 54 -51 106 -129
118 -179 4 -15 14 -33 23 -40 26 -22 8 77 -28 151 -64 131 -196 226 -352 252
-79 13 -110 10 -353 -32 -131 -23 -263 12 -345 91 -45 43 -63 51 -53 23z"/>
<path d="M3245 10010 c-3 -5 7 -12 22 -15 15 -3 47 -10 71 -15 23 -6 54 -10
69 -10 15 0 40 -4 57 -9 17 -5 51 -15 76 -22 114 -30 168 -52 295 -116 212
-108 447 -322 570 -522 6 -9 18 -28 27 -42 43 -64 119 -234 153 -339 80 -248
100 -424 92 -785 -7 -271 -25 -417 -81 -649 -119 -494 -372 -939 -713 -1252
-66 -60 -91 -90 -84 -97 7 -7 24 0 53 24 24 18 52 40 63 49 52 39 281 278 334
349 54 73 174 267 215 348 96 191 202 513 237 720 44 267 43 265 43 578 0 246
-3 332 -17 415 -37 229 -81 371 -173 555 -197 400 -508 660 -949 795 -16 5
-59 14 -95 20 -36 7 -81 16 -101 21 -48 12 -156 12 -164 -1z"/>
<path d="M3935 8744 c-193 -28 -355 -123 -453 -266 -38 -56 -54 -112 -28 -102
8 3 25 21 36 39 53 86 191 182 327 227 156 51 334 49 508 -7 44 -14 113 -28
153 -32 39 -3 72 -10 72 -14 0 -5 -7 -9 -16 -9 -9 0 -39 -13 -67 -28 -120 -65
-214 -78 -367 -53 -67 12 -181 -2 -259 -31 -113 -42 -203 -124 -257 -234 -34
-70 -42 -108 -25 -118 4 -3 19 6 32 21 56 61 134 74 298 51 140 -19 272 12
378 90 23 17 77 73 121 124 44 51 100 108 126 127 25 19 48 43 52 53 3 10 17
24 31 32 25 12 22 14 -48 20 -67 7 -179 37 -204 56 -5 4 -42 17 -81 29 -69 20
-261 35 -329 25z m119 -380 c9 -3 16 -9 16 -13 0 -10 -59 -33 -69 -26 -6 3
-19 0 -30 -7 -16 -10 -23 -9 -39 5 -10 9 -25 17 -32 17 -10 0 -11 3 -3 11 8 8
17 7 32 -2 18 -12 23 -11 38 4 17 17 58 22 87 11z"/>
<path d="M2925 7488 c-41 -15 -55 -27 -55 -50 0 -22 16 -41 43 -51 29 -11 40
3 21 25 -16 16 -16 21 -4 29 18 11 49 5 110 -23 76 -35 126 -35 220 1 89 35
116 34 131 -6 9 -24 11 -24 32 -10 24 16 24 43 2 66 -24 25 -104 25 -170 1
-93 -35 -128 -36 -193 -7 -74 33 -101 38 -137 25z"/>
<path d="M3116 7227 c-13 -9 -23 -37 -30 -83 -10 -60 -14 -69 -31 -65 -11 2
-47 4 -80 5 -54 1 -68 -3 -135 -43 -89 -52 -133 -75 -177 -91 -18 -7 -33 -16
-33 -20 0 -11 138 -138 182 -167 36 -24 65 -34 156 -53 24 -6 47 -12 51 -14 4
-3 2 -33 -6 -68 -7 -35 -18 -92 -24 -128 -15 -92 -26 -156 -39 -225 -14 -74
-28 -158 -41 -250 -13 -83 -23 -105 -50 -105 -32 0 -76 -27 -102 -62 -25 -34
-27 -42 -77 -223 -17 -60 -35 -128 -41 -150 -6 -22 -15 -51 -19 -65 -4 -14
-13 -43 -19 -65 -6 -22 -22 -80 -37 -130 -14 -49 -29 -103 -34 -120 -19 -75
-102 -253 -138 -297 -9 -11 -32 -38 -49 -58 -32 -36 -42 -60 -25 -60 16 0 98
85 140 145 52 76 110 214 152 365 7 25 16 56 20 70 4 14 13 43 18 65 6 22 28
93 47 158 31 100 42 124 75 157 24 24 53 41 73 45 19 4 122 2 228 -4 107 -6
252 -14 322 -17 174 -10 171 -7 272 -210 76 -152 126 -294 125 -355 0 -51 -50
-66 -94 -26 -14 12 -58 85 -97 162 -83 164 -124 232 -150 245 -10 6 -35 10
-55 10 -64 0 -203 22 -331 51 -144 34 -141 34 -193 13 -49 -20 -77 -57 -86
-115 l-7 -44 22 19 c11 11 21 25 21 32 0 7 14 26 31 43 33 33 81 41 143 22
104 -32 190 -49 325 -64 80 -9 117 -17 122 -27 5 -8 31 -54 58 -102 84 -148
110 -221 97 -272 -7 -29 -34 -37 -73 -21 -21 9 -50 45 -100 121 -38 60 -77
115 -86 122 -11 9 -61 14 -171 15 -105 2 -160 7 -168 15 -15 15 -88 16 -88 2
0 -6 8 -13 18 -16 9 -3 24 -9 32 -14 9 -4 42 -13 73 -20 56 -13 68 -25 46 -47
-14 -14 -14 -112 0 -173 26 -112 -6 -260 -70 -329 -11 -11 -19 -24 -19 -28 0
-4 -23 -31 -52 -60 -38 -38 -49 -56 -41 -64 18 -18 155 129 194 209 29 60 32
77 33 157 0 50 -1 131 -4 182 -5 86 -3 94 18 115 19 20 33 23 95 23 l72 0 68
-100 c75 -111 76 -118 27 -189 -46 -67 -161 -176 -184 -176 -4 0 -25 -12 -47
-27 -57 -37 -36 -55 28 -22 26 13 50 27 51 32 2 4 8 7 13 7 23 0 166 140 189
185 20 41 27 44 67 33 57 -16 93 -2 111 43 15 39 15 39 36 21 73 -66 176 -32
176 57 0 33 -19 110 -44 181 -9 25 -16 50 -16 57 0 7 33 45 73 85 70 70 117
145 133 211 5 21 11 27 23 22 74 -28 197 -31 254 -4 26 12 67 65 67 87 0 6
-10 21 -22 32 -27 25 -258 142 -373 190 -44 18 -89 36 -100 41 -74 31 -215 69
-256 69 -49 0 -110 -14 -282 -66 -31 -9 -60 -15 -62 -12 -3 2 0 49 6 104 14
139 27 307 35 457 l7 127 36 0 c47 0 125 22 178 49 53 27 225 170 221 183 -2
6 -24 17 -48 25 -64 20 -87 32 -212 107 -41 24 -56 27 -105 24 -32 -2 -65 -8
-74 -12 -13 -6 -20 1 -29 31 -20 62 -53 114 -82 129 -33 17 -30 17 -52 1z m57
-64 c32 -37 57 -140 63 -266 6 -112 1 -210 -26 -572 -6 -71 -13 -174 -17 -228
-3 -53 -11 -101 -17 -106 -9 -8 -100 -29 -208 -48 -31 -6 -33 0 -18 56 12 46
39 188 51 266 5 33 13 83 18 110 22 111 52 278 82 460 6 33 14 116 19 185 8
123 15 160 30 160 4 0 14 -8 23 -17z m-122 -149 c19 -17 24 -50 13 -90 -5 -20
-10 -21 -127 -17 -112 4 -163 -4 -145 -22 4 -4 64 -10 133 -13 l127 -5 -7 -51
c-3 -28 -9 -54 -13 -58 -12 -11 -114 11 -167 37 -52 25 -145 99 -145 115 0 4
28 22 63 39 34 17 87 45 117 62 61 34 115 35 151 3z m410 -23 c37 -21 90 -49
118 -61 l51 -24 -37 -38 c-52 -53 -146 -104 -217 -117 -99 -18 -96 -20 -96 54
l0 65 108 1 c119 1 203 10 186 22 -7 4 -74 9 -150 12 l-139 4 -3 51 c-3 45 0
51 20 59 48 20 92 12 159 -28z m250 -991 c91 -30 124 -42 161 -61 10 -5 22 -9
27 -9 5 0 41 -14 80 -32 55 -24 71 -36 71 -52 0 -51 94 -126 158 -126 47 0 47
-18 0 -30 -54 -15 -127 -1 -263 50 -55 21 -154 55 -220 75 -102 33 -124 37
-155 28 -19 -6 -98 -29 -175 -53 -194 -59 -200 -59 -386 -53 -161 6 -167 5
-207 -17 -23 -13 -44 -21 -47 -18 -11 11 30 111 56 137 28 29 41 32 264 76 72
14 204 45 295 69 91 24 184 44 206 45 23 0 84 -13 135 -29z m559 -259 c0 -10
-9 -12 -41 -7 -73 12 -149 62 -149 98 0 15 14 11 95 -29 52 -26 95 -54 95 -62z
m-565 35 c36 -13 60 -36 37 -36 -5 0 -32 -20 -60 -45 -33 -29 -56 -43 -66 -39
-9 3 -16 10 -16 14 0 21 -77 43 -151 43 -108 0 -117 11 -28 37 41 12 92 28
114 35 44 16 108 12 170 -9z m172 -57 c86 -35 88 -39 43 -126 -33 -65 -138
-183 -160 -182 -9 0 -36 43 -63 97 l-49 97 54 48 c78 72 121 87 175 66z"/>
<path d="M3543 5125 c0 -33 2 -45 4 -27 2 18 2 45 0 60 -2 15 -4 0 -4 -33z"/>
<path d="M880 4310 c0 -5 9 -14 20 -20 19 -10 20 -21 20 -210 0 -187 -1 -201
-20 -220 -11 -11 -20 -22 -20 -25 0 -3 88 -5 195 -5 l194 0 6 38 c4 20 11 50
17 65 18 46 -5 56 -31 14 -12 -19 -31 -41 -44 -49 -23 -16 -158 -31 -183 -21
-22 8 -21 385 2 407 8 9 20 16 25 16 5 0 9 5 9 10 0 6 -38 10 -95 10 -54 0
-95 -4 -95 -10z"/>
<path d="M1618 4303 c-9 -10 -19 -28 -23 -41 -6 -22 -72 -164 -151 -328 -22
-45 -41 -74 -54 -77 -11 -3 -20 -12 -20 -21 0 -13 13 -16 71 -16 l71 0 -16 25
c-21 32 -20 53 4 103 l20 42 101 0 100 0 25 -56 c15 -35 21 -61 16 -68 -29
-37 -22 -41 79 -43 76 -1 97 1 93 11 -3 7 -16 18 -29 24 -24 11 -85 125 -183
347 -51 116 -71 135 -104 98z m45 -181 c20 -43 37 -83 37 -90 0 -8 -24 -12
-80 -12 -45 0 -80 4 -80 10 0 5 11 34 25 64 14 30 29 66 35 80 5 14 13 26 17
26 5 0 25 -35 46 -78z"/>
<path d="M1887 4313 c-4 -3 7 -15 24 -25 24 -15 47 -53 109 -182 43 -89 89
-189 102 -222 18 -44 30 -60 46 -62 18 -3 26 5 38 35 9 21 38 84 65 141 27 57
49 105 49 107 0 3 19 43 41 91 29 59 49 88 65 95 47 17 24 29 -56 29 -76 0
-103 -11 -60 -25 22 -7 27 -42 11 -73 -21 -40 -51 -113 -51 -125 0 -7 -4 -17
-9 -22 -5 -6 -18 -35 -29 -65 -10 -30 -24 -56 -29 -57 -5 -2 -20 20 -33 49
-13 29 -43 95 -67 147 -45 99 -53 135 -28 145 8 3 15 10 15 16 0 11 -192 15
-203 3z"/>
<path d="M2540 4311 c0 -5 11 -12 24 -15 32 -8 36 -35 36 -242 l0 -173 -32
-30 -32 -29 109 0 108 0 -29 25 -29 25 -3 166 c-3 190 4 242 36 258 12 6 19
14 15 17 -10 10 -203 8 -203 -2z"/>
<path d="M2887 4313 c-4 -4 6 -12 23 -19 l30 -13 1 -148 c1 -249 1 -255 -28
-285 l-25 -26 100 1 101 1 -25 29 c-21 25 -24 38 -24 113 l0 84 28 0 c33 0 69
-35 129 -125 55 -82 71 -94 139 -105 65 -11 96 2 59 24 -37 21 -185 184 -185
204 0 5 19 17 41 28 70 31 97 100 64 164 -16 31 -38 46 -95 67 -37 13 -321 19
-333 6z m278 -39 c24 -6 65 -62 65 -88 0 -33 -31 -84 -58 -94 -37 -14 -100
-22 -118 -15 -11 4 -14 26 -14 97 0 51 3 96 7 99 8 8 90 9 118 1z"/>
<path d="M3728 4309 c-10 -5 -18 -15 -18 -20 0 -6 -28 -67 -61 -137 -85 -176
-119 -251 -119 -262 0 -5 -13 -18 -30 -30 -16 -12 -30 -26 -30 -31 0 -5 32 -9
70 -9 70 0 83 7 55 30 -21 17 -19 42 7 95 l22 46 100 -3 100 -3 22 -55 c20
-49 20 -56 6 -77 -8 -13 -12 -26 -10 -29 3 -2 48 -3 99 -2 l94 3 -32 28 c-28
26 -104 175 -207 410 -25 57 -36 65 -68 46z m35 -194 c20 -42 37 -80 37 -85 0
-6 -34 -10 -80 -10 -44 0 -80 3 -80 7 0 19 66 163 75 163 6 0 27 -34 48 -75z"/>
<path d="M4100 4310 c0 -6 11 -15 24 -20 41 -15 46 -38 46 -229 l0 -180 -26
-20 c-14 -11 -30 -22 -37 -24 -31 -11 9 -18 89 -15 80 3 86 4 61 15 -15 7 -32
24 -37 38 -12 32 -13 305 -2 305 8 0 140 -134 300 -304 90 -95 92 -92 92 153
0 115 4 221 9 234 6 14 19 28 30 32 45 14 17 25 -64 25 -82 0 -112 -13 -61
-26 39 -9 47 -46 44 -199 l-3 -139 -170 182 -170 181 -62 1 c-37 0 -63 -4 -63
-10z"/>
<path d="M4766 4259 c-8 -65 -1 -86 18 -55 32 54 50 66 106 68 l55 3 3 -199 2
-199 -27 -29 -27 -28 103 0 103 0 -31 29 -31 29 0 196 c0 223 -4 215 83 200
47 -8 54 -13 76 -52 32 -59 48 -43 35 35 l-9 58 -226 3 -226 2 -7 -61z"/>
</g>
</svg>
