<svg version="1.0" xmlns="http://www.w3.org/2000/svg" width="300.000000pt" height="600.000000pt" viewBox="0 0 300.000000 600.000000" preserveAspectRatio="xMidYMid meet" style="width: 759.567px; height: auto;"> <g transform="translate(0.000000,600.000000) scale(0.100000,-0.100000)" fill="#000000" stroke="none" class="">    <path d="M1557 4688 l3 -323 -30 60 c-35 70 -49 87 -110 137 -83 67 -156 85 -431 107 -100 7 -125 13 -170 37 -30 17 -61 43 -72 62 -10 17 -21 32 -24 32 -6 0 6 -150 23 -265 37 -256 146 -479 289 -587 102 -78 223 -102 364 -74 68 14 86 15 109 4 32 -16 52 -52 52 -95 0 -18 4 -33 10 -33 6 0 11 225 12 630 3 555 1 630 -12 630 -13 0 -15 -41 -13 -322z m-777 -13 c38 -78 100 -106 275 -124 144 -15 209 -28 273 -57 68 -30 155 -113 186 -178 14 -28 25 -45 26 -38 1 30 -48 111 -95 158 -86 86 -167 115 -373 135 -141 13 -204 31 -252 76 -22 19 -40 40 -40 45 0 7 5 6 13 -1 33 -27 110 -42 258 -51 172 -11 254 -30 330 -78 65 -41 116 -110 147 -194 25 -69 27 -85 30 -288 3 -207 3 -214 -15 -198 -31 27 -58 29 -155 13 -141 -25 -235 -5 -337 70 -94 69 -181 206 -235 370 -39 118 -82 385 -62 385 2 0 14 -20 26 -45z" class=""></path>  <path d="M845 4435 c14 -77 57 -201 98 -280 68 -130 183 -229 284 -241 36 -4 35 -3 -11 11 -68 23 -114 54 -174 120 -64 69 -134 208 -167 329 -26 95 -41 127 -30 61z" class=""></path> <path d="M948 4364 c15 -28 69 -74 88 -74 8 0 14 -10 14 -25 0 -35 21 -73 62 -112 57 -55 92 -64 246 -62 75 0 146 -2 157 -6 11 -3 7 2 -10 11 -24 15 -55 18 -155 19 -133 2 -158 8 -209 50 -26 22 -71 91 -71 108 0 6 159 21 225 21 42 0 73 -7 103 -22 44 -24 102 -93 102 -123 0 -10 5 -21 11 -25 9 -5 10 1 5 22 -22 90 -105 167 -192 180 -25 3 -77 2 -114 -5 -131 -21 -188 -12 -249 43 l-24 21 11 -21z" class=""></path>       <path d="M1705 4990 c157 -33 273 -91 381 -192 161 -151 247 -358 258 -623 17 -402 -124 -789 -380 -1038 -38 -37 -63 -67 -56 -67 6 0 54 42 106 93 183 179 290 392 343 682 23 126 22 390 -1 510 -55 281 -221 497 -462 598 -66 28 -196 58 -246 56 -20 -1 3 -8 57 -19z" class=""></path>      <path d="M1952 4369 c-87 -15 -161 -61 -207 -130 -14 -23 -24 -44 -20 -47 4 -4 11 2 18 13 19 36 71 78 127 104 79 37 184 40 311 10 l97 -23 -51 -23 c-44 -21 -64 -23 -151 -22 -116 3 -168 -10 -222 -54 -56 -47 -103 -161 -48 -118 24 19 39 21 138 19 138 -3 151 3 266 121 47 48 92 90 100 94 8 3 -4 6 -26 6 -23 1 -70 12 -105 25 -76 28 -155 37 -227 25z m228 -147 c0 -14 -91 -84 -119 -92 -42 -11 -183 -6 -206 8 -15 8 -15 10 0 26 10 9 24 15 32 11 11 -4 13 -1 9 11 -5 14 -4 15 9 4 13 -11 14 -10 9 3 -4 12 4 18 38 25 38 8 228 11 228 4z" class=""></path>      <path d="M1454 3736 c-18 -14 -18 -16 -2 -32 10 -10 21 -14 25 -10 4 4 1 11 -7 16 -26 16 0 24 33 11 55 -23 84 -24 133 -5 43 16 47 17 59 1 6 -9 15 -14 18 -10 12 11 8 22 -13 33 -15 8 -34 7 -74 -6 -50 -16 -57 -16 -95 0 -50 20 -52 20 -77 2z"></path>  <path d="M1556 3612 c-2 -4 -7 -23 -11 -43 -6 -35 -8 -36 -34 -26 -23 8 -38 4 -110 -34 l-84 -43 49 -44 c27 -23 67 -47 89 -53 22 -6 45 -13 51 -14 10 -3 1 -71 -51 -362 -4 -23 -11 -33 -24 -33 -39 0 -61 -44 -111 -227 -64 -235 -95 -312 -144 -352 -9 -7 -16 -18 -16 -24 0 -22 72 60 94 108 13 27 43 113 66 190 49 164 52 170 88 189 22 12 55 12 187 4 88 -6 169 -14 181 -20 38 -18 135 -245 121 -282 -15 -40 -48 -13 -97 79 -65 119 -69 125 -103 125 -18 1 -68 7 -112 16 -44 8 -94 17 -110 20 -38 7 -72 -19 -80 -61 l-6 -30 18 33 c22 42 49 48 126 29 34 -9 90 -19 125 -23 l62 -7 32 -55 c23 -40 29 -59 22 -71 -6 -9 -7 -29 -3 -46 6 -29 7 -29 8 8 1 47 21 40 21 -8 0 -68 -37 -56 -91 30 l-39 63 -100 4 c-60 2 -105 9 -112 16 -7 7 -16 12 -21 12 -23 0 26 -30 64 -40 l44 -11 0 -108 0 -108 -38 -56 c-20 -32 -42 -57 -47 -57 -6 0 -10 -5 -10 -12 0 -19 70 53 89 92 27 53 31 79 22 145 -12 79 3 105 58 105 35 0 41 -4 75 -55 l37 -56 -28 -42 c-16 -23 -52 -57 -80 -76 -56 -37 -64 -53 -14 -27 44 23 100 74 117 108 12 23 18 27 34 18 24 -13 47 -4 55 21 6 18 8 18 31 2 20 -13 30 -14 49 -5 30 14 31 37 9 111 l-15 53 46 49 c25 27 48 62 51 79 7 31 10 32 77 13 25 -7 86 16 97 37 13 24 -7 41 -114 91 -105 49 -220 89 -255 89 -14 0 -58 -9 -96 -20 -38 -11 -72 -20 -76 -20 -3 0 -2 28 2 63 4 34 11 113 15 175 l7 112 26 0 c35 0 117 42 159 81 19 17 32 31 30 32 -133 69 -158 79 -192 75 -33 -4 -37 -1 -47 29 -12 38 -50 66 -63 45z m54 -71 c13 -48 13 -224 -1 -402 l-12 -146 -61 -11 c-33 -6 -61 -10 -62 -9 -2 2 14 97 36 212 21 116 41 237 44 270 15 142 16 147 32 135 7 -7 18 -29 24 -49z m-75 -56 l0 -30 -72 3 c-48 3 -73 0 -73 -7 0 -7 26 -11 70 -11 74 0 81 -6 62 -51 -6 -15 -12 -15 -52 -3 -41 12 -122 67 -110 76 44 30 111 57 140 55 32 -2 35 -5 35 -32z m226 2 l64 -34 -41 -32 c-41 -31 -90 -51 -126 -51 -14 0 -18 8 -18 35 l0 35 78 1 c50 0 70 3 57 9 -11 4 -46 7 -77 6 -57 -1 -58 0 -58 26 0 48 36 49 121 5z m84 -478 c87 -24 185 -71 185 -88 0 -26 31 -50 71 -56 32 -5 33 -5 5 4 -30 11 -66 39 -66 53 0 4 23 -3 51 -17 54 -28 58 -44 16 -59 -20 -7 -55 0 -164 37 l-139 46 -94 -30 c-78 -24 -111 -29 -195 -29 -75 0 -106 -4 -123 -16 -26 -18 -27 -16 -6 36 18 45 -1 37 234 93 167 40 172 41 225 26z m33 -125 c2 -1 -11 -16 -29 -32 -33 -30 -34 -30 -58 -11 -16 13 -41 19 -75 20 l-51 1 70 22 c56 18 77 20 105 12 19 -5 37 -11 38 -12z m71 -25 c17 -6 31 -16 31 -23 0 -27 -93 -150 -103 -135 -1 2 -13 26 -26 54 l-23 49 36 33 c40 37 41 37 85 22z" class=""></path>                     <path d="M430 2158 c0 -5 6 -8 14 -8 12 0 15 -22 18 -102 2 -85 0 -105 -14 -117 -15 -15 -7 -16 85 -13 56 2 102 5 103 5 1 1 4 18 7 37 l7 35 -21 -27 c-18 -24 -28 -28 -70 -28 l-49 0 0 105 c0 87 3 105 15 105 8 0 15 3 15 8 0 4 -25 7 -55 7 -30 0 -55 -3 -55 -7z"></path> <path d="M813 2148 c-6 -7 -29 -56 -53 -108 -23 -52 -51 -102 -61 -110 -17 -14 -16 -15 26 -16 38 -1 42 1 28 12 -14 10 -16 18 -8 41 10 26 15 28 65 31 54 3 56 2 68 -30 10 -27 10 -35 -1 -43 -10 -7 1 -10 40 -10 29 0 53 2 53 3 0 2 -9 11 -20 20 -11 10 -40 62 -64 117 -25 55 -49 101 -54 103 -5 1 -14 -3 -19 -10z m4 -136 c-21 -2 -41 -1 -43 1 -2 2 5 25 17 52 l21 47 22 -48 23 -49 -40 -3z" class=""></path> <path d="M952 2153 c15 -4 60 -87 110 -202 24 -56 29 -51 89 83 24 54 53 104 63 112 19 13 16 14 -29 13 -28 -1 -42 -3 -32 -6 24 -6 22 -18 -17 -109 -32 -73 -35 -77 -44 -54 -6 14 -22 50 -36 80 -31 63 -32 77 -8 83 9 3 -12 5 -48 5 -36 0 -57 -2 -48 -5z" class=""></path> <path d="M1283 2153 c15 -4 17 -18 17 -110 0 -85 -3 -108 -16 -117 -12 -9 -4 -12 40 -12 35 0 50 3 41 9 -12 6 -15 31 -15 117 0 95 2 109 18 113 9 3 -10 5 -43 5 -33 0 -52 -2 -42 -5z" class=""></path> <path d="M1450 2153 c24 -9 26 -17 29 -112 2 -76 -1 -93 -16 -108 -18 -18 -16 -18 38 -18 50 0 55 1 38 13 -24 16 -28 102 -5 102 13 0 49 -38 86 -90 9 -13 30 -23 55 -26 40 -6 40 -5 19 13 -12 10 -38 37 -59 60 l-37 43 25 9 c36 14 52 47 38 77 -15 34 -49 44 -144 43 -45 0 -75 -3 -67 -6z m138 -12 c7 0 17 -12 24 -26 17 -37 -12 -75 -57 -75 l-35 0 0 48 c0 56 2 60 33 57 12 -1 28 -3 35 -4z" class=""></path> <path d="M1816 2049 c-30 -60 -62 -116 -71 -123 -15 -11 -11 -13 28 -13 38 0 43 2 30 12 -14 11 -15 16 -4 44 12 29 17 31 62 31 44 0 50 -3 64 -31 11 -20 13 -34 7 -42 -8 -9 2 -12 38 -12 44 0 47 1 32 16 -9 8 -39 63 -66 122 -27 59 -53 107 -58 107 -5 0 -33 -50 -62 -111z m51 -37 c-21 -2 -41 -1 -43 1 -2 2 5 25 17 52 l21 47 22 -48 23 -49 -40 -3z" class=""></path> <path d="M2068 2144 c20 -14 22 -23 22 -108 0 -85 -2 -95 -22 -108 -20 -13 -18 -14 29 -15 36 0 50 3 50 13 0 9 -4 11 -12 4 -20 -17 -25 0 -25 85 l0 82 92 -93 c50 -52 95 -94 99 -94 5 0 7 17 7 38 -1 20 -1 74 0 119 2 68 5 82 20 86 9 3 -5 5 -33 5 -39 1 -45 -1 -27 -8 20 -9 22 -16 22 -92 l-1 -83 -87 93 c-78 83 -91 93 -122 92 -34 0 -34 0 -12 -16z" class=""></path> <path d="M2386 2128 c-8 -40 0 -49 13 -14 9 21 17 26 46 26 l35 0 0 -105 c0 -82 -3 -106 -15 -112 -9 -6 7 -9 43 -9 46 -1 53 1 35 9 -22 9 -23 16 -23 114 l0 103 35 0 c27 0 37 -6 49 -27 l15 -28 1 38 0 37 -114 0 -113 0 -7 -32z"></path>         </g> </svg>