<svg xmlns="http://www.w3.org/2000/svg" xmlns:xlink="http://www.w3.org/1999/xlink" width="1080" zoomAndPan="magnify" viewBox="0 0 810 809.999993" height="1080" preserveAspectRatio="xMidYMid meet" version="1.0"><path fill="#c9a24d" d="M 422.316406 16.765625 C 421.8125 17.898438 421.6875 53.484375 422.066406 95.988281 C 422.441406 156.097656 422.191406 172.945312 421.058594 171.941406 C 420.179688 171.3125 419.171875 169.175781 418.667969 167.289062 C 416.910156 159.996094 407.226562 144.90625 399.304688 136.855469 C 383.960938 121.390625 367.488281 112.460938 345.734375 107.808594 C 332.28125 104.917969 315.804688 102.902344 304.992188 102.902344 C 287.765625 102.777344 259.09375 99.632812 249.285156 96.867188 C 235.199219 92.71875 226.773438 86.554688 217.972656 74.105469 C 215.082031 70.082031 213.824219 69.078125 213.070312 70.335938 C 211.683594 73.101562 215.332031 120.507812 218.097656 136.226562 C 218.726562 139.625 219.859375 146.160156 220.738281 150.6875 C 221.492188 155.214844 223.003906 162.007812 224.007812 165.777344 C 225.015625 169.550781 226.273438 174.332031 226.902344 176.46875 C 233.441406 201.367188 249.789062 236.828125 262.488281 253.804688 C 271.289062 265.625 289.902344 282.851562 300.96875 289.515625 C 322.34375 302.34375 350.386719 308.253906 371.136719 304.230469 C 402.824219 297.941406 409.488281 297.816406 415.273438 303.097656 C 419.800781 307.375 423.070312 314.667969 423.070312 320.703125 C 423.070312 327.871094 424.203125 331.769531 426.214844 331.769531 C 427.222656 331.769531 428.226562 330.761719 428.605469 329.503906 C 428.980469 328.375 429.359375 257.199219 429.609375 171.4375 L 429.988281 15.507812 L 426.464844 15.128906 C 424.203125 14.878906 422.820312 15.382812 422.316406 16.765625 Z M 225.140625 94.980469 C 229.542969 107.054688 237.839844 116.234375 248.65625 121.515625 C 260.980469 127.425781 269.65625 129.058594 311.152344 133.085938 C 338.945312 135.851562 355.921875 140.503906 373.902344 150.3125 C 386.855469 157.355469 402.574219 172.570312 409.867188 185.144531 C 415.023438 194.199219 417.414062 194.449219 413.515625 185.523438 C 409.363281 176.089844 399.429688 162.382812 391.632812 155.46875 C 372.140625 138.238281 351.015625 130.441406 314.296875 126.796875 C 282.105469 123.652344 267.140625 121.640625 260.726562 119.753906 C 248.152344 116.109375 233.941406 106.171875 229.542969 98.125 C 227.402344 94.101562 227.78125 94.101562 233.816406 97.371094 C 236.835938 99.132812 242.367188 101.648438 246.140625 102.902344 C 254.816406 105.921875 279.589844 109.191406 294.804688 109.191406 C 316.183594 109.316406 342.339844 113.089844 357.679688 118.371094 C 390 129.5625 411.25 154.714844 419.800781 192.1875 C 423.070312 206.523438 423.070312 206.898438 422.820312 253.550781 L 422.441406 300.332031 L 418.039062 297.4375 C 409.992188 292.03125 404.460938 291.277344 392.011719 293.414062 C 371.890625 297.0625 365.980469 297.816406 354.539062 297.691406 C 344.226562 297.691406 339.699219 297.1875 328.128906 294.671875 C 320.960938 293.039062 301.34375 282.726562 293.296875 276.4375 C 268.902344 256.949219 249.285156 224.378906 235.074219 179.738281 C 233.3125 173.953125 231.300781 166.910156 230.671875 164.019531 C 230.171875 161.253906 229.039062 155.71875 228.160156 151.945312 C 221.746094 121.261719 218.476562 89.070312 221.746094 89.070312 C 222.375 89.070312 223.882812 91.710938 225.140625 94.980469 Z M 225.140625 94.980469 " fill-opacity="1" fill-rule="nonzero"/><path fill="#c9a24d" d="M 242.621094 153.328125 C 242.117188 154.839844 242.367188 156.597656 243.121094 157.355469 C 243.878906 158.109375 244.507812 160.246094 244.507812 162.257812 C 244.507812 165.527344 246.140625 172.191406 252.050781 192.816406 C 254.316406 200.988281 258.839844 212.179688 264.25 223.625 C 282.484375 261.601562 312.914062 288.761719 339.574219 290.773438 C 348 291.527344 348.125 291.402344 342.96875 289.894531 C 340.074219 289.140625 337.308594 288.007812 336.804688 287.378906 C 336.304688 286.875 334.921875 286.5 333.789062 286.5 C 331.023438 286.5 316.8125 279.207031 310.523438 274.679688 C 302.351562 268.640625 288.894531 254.308594 282.355469 244.625 C 273.679688 231.546875 263.996094 212.433594 259.46875 199.101562 C 258.589844 196.335938 257.332031 193.570312 256.828125 192.816406 C 256.328125 192.1875 255.824219 190.675781 255.824219 189.421875 C 255.824219 188.164062 255.320312 186.152344 254.691406 184.894531 C 252.929688 181.246094 250.792969 173.953125 250.792969 171.0625 C 250.792969 169.675781 250.289062 168.042969 249.535156 167.664062 C 248.90625 167.289062 248.277344 165.277344 248.277344 163.390625 C 248.277344 159.996094 245.132812 150.6875 244.003906 150.6875 C 243.625 150.6875 242.996094 151.820312 242.621094 153.328125 Z M 242.621094 153.328125 " fill-opacity="1" fill-rule="nonzero"/><path fill="#c9a24d" d="M 269.277344 176.71875 C 271.792969 183.886719 278.835938 190.804688 288.265625 195.457031 C 294.175781 198.472656 294.804688 199.101562 294.804688 203 C 294.804688 210.546875 301.472656 222.996094 310.023438 231.292969 C 325.363281 246.132812 340.578125 249.90625 375.664062 247.515625 C 389.871094 246.511719 398.171875 246.386719 402.949219 247.265625 C 406.722656 248.019531 410.875 248.773438 412.003906 249.027344 C 416.027344 249.78125 414.898438 247.140625 410.117188 244.625 C 400.8125 239.847656 391.257812 238.589844 374.28125 240.097656 C 339.195312 243.117188 315.429688 233.433594 305.496094 212.054688 C 300.085938 200.484375 300.339844 200.109375 314.675781 199.355469 C 321.339844 198.976562 330.015625 198.097656 333.789062 197.34375 C 361.453125 192.0625 378.429688 195.582031 393.769531 210.167969 C 400.5625 216.582031 407.101562 226.390625 408.609375 232.679688 C 409.113281 234.5625 410.371094 236.828125 411.503906 237.707031 C 414.773438 240.472656 412.507812 228.023438 407.980469 218.71875 C 399.933594 202.246094 383.335938 190.300781 363.71875 187.03125 C 353.78125 185.394531 349.882812 185.773438 319.328125 191.054688 C 302.855469 193.945312 286.253906 189.546875 275.945312 179.613281 C 270.285156 174.203125 268.019531 173.199219 269.277344 176.71875 Z M 269.277344 176.71875 " fill-opacity="1" fill-rule="nonzero"/><path fill="#c9a24d" d="M 440.046875 16.136719 C 439.671875 16.765625 440.925781 17.644531 442.8125 18.023438 C 444.699219 18.398438 448.722656 19.28125 451.742188 19.910156 C 454.632812 20.664062 458.53125 21.167969 460.417969 21.167969 C 462.304688 21.167969 465.449219 21.667969 467.585938 22.296875 C 469.722656 22.925781 474 24.183594 477.144531 25.066406 C 491.480469 28.835938 498.269531 31.605469 514.238281 39.652344 C 540.898438 53.234375 570.449219 80.144531 585.917969 105.292969 C 586.671875 106.425781 588.179688 108.8125 589.3125 110.574219 C 594.71875 118.621094 604.277344 140 608.550781 153.203125 C 618.613281 184.390625 621.128906 206.523438 620.121094 251.917969 C 619.242188 285.996094 616.976562 304.355469 609.933594 333.53125 C 594.972656 395.648438 563.15625 451.609375 520.277344 490.96875 C 511.976562 498.511719 508.832031 502.285156 509.710938 503.167969 C 510.59375 504.046875 512.730469 503.167969 516.378906 500.148438 C 519.394531 497.886719 522.917969 495.117188 524.300781 493.988281 C 530.839844 489.082031 559.636719 459.027344 566.300781 450.101562 C 573.089844 440.921875 588.179688 416.523438 593.335938 406.339844 C 605.410156 382.320312 618.738281 341.828125 623.140625 315.796875 C 628.671875 282.222656 628.546875 282.476562 628.546875 243.117188 C 628.546875 212.179688 628.167969 201.367188 626.410156 190.929688 C 621.757812 162.132812 616.222656 144.277344 604.652344 121.136719 C 579.882812 70.835938 540.773438 38.144531 485.316406 21.167969 C 483.304688 20.539062 477.898438 19.40625 473.371094 18.652344 C 468.84375 17.769531 463.183594 16.640625 460.671875 16.011719 C 454.632812 14.5 441.054688 14.5 440.046875 16.136719 Z M 440.046875 16.136719 " fill-opacity="1" fill-rule="nonzero"/><path fill="#c9a24d" d="M 526.816406 175.335938 C 502.546875 178.855469 482.171875 190.804688 469.851562 208.785156 C 465.070312 215.828125 463.058594 222.871094 466.328125 221.613281 C 467.335938 221.234375 469.472656 218.972656 470.855469 216.707031 C 477.519531 205.894531 494.875 193.820312 511.976562 188.164062 C 531.59375 181.75 553.976562 182 575.855469 189.042969 C 581.390625 190.804688 590.066406 192.5625 595.097656 193.066406 C 600 193.445312 604.152344 194.324219 604.152344 194.828125 C 604.152344 195.457031 603.269531 195.960938 602.140625 195.960938 C 601.007812 195.960938 597.234375 197.59375 593.714844 199.480469 C 578.625 207.652344 566.804688 209.289062 547.5625 206.144531 C 539.136719 204.636719 524.800781 206.394531 514.996094 210.042969 C 500.785156 215.324219 489.46875 225.636719 482.675781 239.46875 C 478.402344 248.269531 477.394531 253.050781 479.53125 254.308594 C 480.035156 254.683594 481.921875 253.550781 483.558594 251.667969 C 490.597656 243.996094 500.40625 242.359375 521.03125 245.253906 C 538.636719 247.640625 555.234375 243.742188 568.5625 233.9375 C 571.457031 231.796875 578.246094 224.753906 583.78125 218.34375 C 589.3125 211.929688 596.355469 204.761719 599.625 202.371094 C 602.769531 199.984375 605.660156 196.964844 606.164062 195.707031 C 606.539062 194.449219 608.300781 192.691406 610.0625 191.683594 C 613.203125 190.175781 612.828125 189.921875 604.023438 189.167969 C 595.601562 188.289062 581.515625 184.515625 578.371094 182.125 C 577.742188 181.625 573.089844 179.988281 568.1875 178.480469 C 559.507812 175.964844 535.367188 174.078125 526.816406 175.335938 Z M 541.777344 223.121094 C 542.910156 223.5 543.789062 224.253906 543.789062 224.753906 C 543.789062 226.011719 536.371094 228.90625 535.113281 228.023438 C 534.359375 227.648438 532.726562 228.023438 531.339844 228.90625 C 529.328125 230.164062 528.449219 230.039062 526.4375 228.277344 C 525.179688 227.144531 523.292969 226.140625 522.414062 226.140625 C 521.15625 226.140625 521.03125 225.761719 522.035156 224.753906 C 523.042969 223.75 524.175781 223.875 526.058594 225.007812 C 528.324219 226.515625 528.953125 226.390625 530.839844 224.503906 C 532.976562 222.367188 538.132812 221.738281 541.777344 223.121094 Z M 541.777344 223.121094 " fill-opacity="1" fill-rule="nonzero"/><path fill="#c9a24d" d="M 399.808594 333.277344 C 394.652344 335.164062 392.890625 336.671875 392.890625 339.566406 C 392.890625 342.332031 394.902344 344.722656 398.296875 345.980469 C 401.945312 347.363281 403.328125 345.601562 400.9375 342.835938 C 398.925781 340.824219 398.925781 340.195312 400.4375 339.1875 C 402.699219 337.804688 406.597656 338.558594 414.269531 342.082031 C 423.824219 346.480469 430.113281 346.480469 441.933594 341.953125 C 453.125 337.554688 456.519531 337.679688 458.40625 342.710938 C 459.539062 345.726562 459.789062 345.726562 462.429688 343.96875 C 465.449219 341.953125 465.449219 338.558594 462.683594 335.667969 C 459.664062 332.523438 449.605469 332.523438 441.304688 335.542969 C 429.609375 339.941406 425.207031 340.070312 417.035156 336.421875 C 407.730469 332.273438 404.335938 331.644531 399.808594 333.277344 Z M 399.808594 333.277344 " fill-opacity="1" fill-rule="nonzero"/><path fill="#c9a24d" d="M 423.824219 366.097656 C 422.191406 367.230469 420.933594 370.75 420.054688 376.535156 C 418.796875 384.082031 418.292969 385.210938 416.15625 384.710938 C 414.773438 384.457031 410.246094 384.207031 406.09375 384.082031 C 399.304688 383.957031 397.542969 384.457031 389.117188 389.488281 C 377.925781 396.027344 372.394531 398.917969 366.859375 400.929688 C 364.597656 401.8125 362.710938 402.945312 362.710938 403.445312 C 362.710938 404.828125 380.066406 420.800781 385.597656 424.445312 C 390.125 427.464844 393.769531 428.722656 405.214844 431.113281 C 408.234375 431.867188 411.125 432.621094 411.628906 432.871094 C 412.128906 433.25 411.878906 437.023438 410.875 441.421875 C 409.992188 445.824219 408.609375 452.992188 407.855469 457.519531 C 405.96875 469.089844 404.585938 477.136719 402.949219 485.8125 C 401.191406 495.117188 399.429688 505.679688 397.796875 517.25 C 396.160156 527.6875 394.902344 530.453125 391.507812 530.453125 C 387.484375 530.453125 381.949219 533.847656 378.679688 538.25 C 375.539062 542.527344 375.285156 543.53125 369 566.292969 C 366.859375 573.835938 364.597656 582.390625 363.84375 585.15625 C 363.089844 587.921875 361.957031 591.570312 361.453125 593.328125 C 360.949219 595.089844 359.820312 598.734375 359.0625 601.503906 C 358.308594 604.269531 356.296875 611.5625 354.410156 617.851562 C 352.652344 624.011719 350.765625 630.800781 350.136719 632.941406 C 347.746094 642.371094 337.308594 664.753906 332.78125 670.289062 C 331.652344 671.671875 328.757812 675.066406 326.621094 677.582031 C 322.597656 682.109375 321.339844 685.125 323.476562 685.125 C 325.488281 685.125 335.800781 674.4375 341.082031 666.894531 C 347.621094 657.335938 354.914062 639.980469 360.195312 620.992188 C 361.078125 617.851562 362.207031 613.953125 362.710938 612.191406 C 363.214844 610.429688 364.347656 606.785156 364.972656 604.019531 C 365.730469 601.25 368.496094 592.324219 370.882812 584.148438 C 374.78125 571.574219 376.167969 568.554688 380.316406 564.40625 C 383.335938 561.386719 386.980469 559.25 389.496094 558.746094 C 391.886719 558.246094 404.835938 558.496094 418.167969 559.25 C 431.621094 560.003906 449.855469 561.011719 458.660156 561.386719 C 480.539062 562.644531 480.160156 562.269531 492.863281 587.796875 C 502.417969 606.910156 508.707031 624.765625 508.582031 632.4375 C 508.582031 638.851562 502.292969 640.738281 496.761719 635.707031 C 495 634.199219 489.46875 625.019531 484.5625 615.335938 C 474.125 594.710938 468.96875 586.160156 465.699219 584.527344 C 464.441406 583.773438 461.300781 583.269531 458.785156 583.269531 C 450.734375 583.269531 433.257812 580.503906 417.160156 576.855469 C 399.054688 572.582031 399.429688 572.582031 392.890625 575.222656 C 386.730469 577.734375 383.207031 582.390625 382.078125 589.683594 L 381.195312 595.214844 L 383.960938 592.824219 C 385.347656 591.441406 386.601562 589.683594 386.601562 588.800781 C 386.601562 587.921875 388.363281 585.53125 390.5 583.394531 C 394.652344 579.246094 400.6875 578.238281 408.484375 580.628906 C 421.5625 584.652344 432.375 586.789062 449.351562 588.675781 C 459.414062 589.808594 464.066406 590.8125 464.695312 592.070312 C 465.324219 593.078125 468.59375 598.863281 471.988281 604.898438 C 482.550781 623.507812 485.820312 632.6875 484.183594 639.101562 C 483.304688 642.75 479.910156 643.753906 475.003906 641.742188 C 472.363281 640.609375 468.71875 636.085938 462.429688 626.527344 C 457.652344 618.980469 452.746094 612.066406 451.617188 611.1875 C 450.234375 610.054688 443.945312 609.425781 430.113281 609.300781 C 416.910156 609.046875 409.992188 608.417969 408.988281 607.414062 C 407.101562 605.527344 397.921875 605.402344 397.921875 607.160156 C 397.921875 607.917969 398.925781 608.796875 400.183594 609.171875 C 401.316406 609.550781 403.203125 610.304688 404.207031 610.933594 C 405.339844 611.4375 409.488281 612.570312 413.386719 613.449219 C 420.429688 615.082031 421.9375 616.59375 419.171875 619.359375 C 417.414062 621.121094 417.414062 633.441406 419.171875 641.113281 C 422.441406 655.199219 418.417969 673.808594 410.371094 682.484375 C 408.988281 683.867188 407.980469 685.503906 407.980469 686.007812 C 407.980469 686.511719 405.089844 689.90625 401.441406 693.550781 C 396.664062 698.332031 395.28125 700.59375 396.285156 701.601562 C 398.550781 703.863281 415.777344 685.378906 420.683594 675.316406 C 424.328125 667.773438 424.707031 665.636719 424.832031 655.574219 C 424.832031 649.289062 424.707031 639.101562 424.328125 632.6875 C 423.699219 621.875 423.953125 620.867188 426.59375 618.226562 C 428.980469 615.710938 430.742188 615.335938 438.539062 615.335938 L 447.59375 615.335938 L 456.144531 627.910156 C 465.574219 641.867188 465.699219 642.75 459.539062 651.675781 C 453.753906 660.101562 439.292969 673.808594 436.402344 673.808594 C 435.898438 673.808594 433.257812 675.316406 430.492188 677.203125 C 423.324219 681.855469 425.964844 684.121094 434.011719 679.972656 C 437.28125 678.335938 440.296875 676.574219 440.425781 675.945312 C 440.675781 675.445312 441.429688 675.066406 442.058594 675.066406 C 444.953125 675.066406 462.933594 657.460938 465.824219 651.804688 C 468.339844 646.648438 469.222656 646.269531 474.25 647.652344 C 481.417969 649.664062 485.945312 647.90625 488.210938 642.246094 C 490.097656 637.339844 490.097656 637.339844 492.738281 639.605469 C 501.917969 647.90625 514.867188 643.628906 514.867188 632.4375 C 514.867188 628.289062 512.480469 618.605469 509.335938 609.675781 C 508.203125 606.53125 507.324219 603.390625 507.324219 602.507812 C 507.324219 601.628906 511.472656 596.851562 516.503906 591.820312 C 525.304688 583.015625 531.214844 573.585938 533.226562 565.285156 C 533.855469 562.644531 534.609375 561.890625 536.121094 562.519531 C 545.425781 566.042969 560.894531 566.417969 568.0625 563.023438 C 571.332031 561.515625 576.484375 554.847656 576.484375 552.082031 C 576.484375 551.328125 575.226562 549.441406 573.71875 548.058594 C 570.324219 544.914062 541.277344 530.203125 526.816406 524.167969 C 521.28125 521.902344 515.621094 519.640625 514.238281 519.011719 C 504.933594 515.113281 487.203125 510.335938 482.046875 510.335938 C 475.886719 510.335938 468.214844 512.09375 446.585938 518.632812 C 442.6875 519.765625 439.042969 520.519531 438.789062 520.140625 C 438.414062 519.890625 438.789062 513.980469 439.542969 507.066406 C 441.304688 489.585938 442.941406 468.460938 443.945312 449.597656 L 444.824219 433.625 L 449.351562 433.625 C 455.261719 433.625 465.070312 430.859375 471.734375 427.464844 C 478.402344 424.070312 500.03125 406.085938 499.527344 404.453125 C 499.277344 403.699219 496.507812 402.316406 493.492188 401.308594 C 485.441406 398.792969 482.550781 397.285156 466.832031 387.855469 C 461.675781 384.835938 459.789062 384.457031 453.628906 384.835938 C 449.605469 385.085938 445.453125 385.839844 444.324219 386.34375 C 442.6875 387.097656 441.808594 386.21875 440.675781 382.445312 C 438.160156 374.648438 434.011719 368.109375 430.363281 366.222656 C 426.214844 364.085938 426.59375 364.085938 423.824219 366.097656 Z M 430.992188 374.148438 C 435.015625 378.800781 438.160156 391.75 438.914062 407.597656 C 439.671875 421.679688 439.042969 434.003906 435.644531 479.523438 C 434.890625 488.453125 434.011719 501.40625 433.507812 508.195312 C 433.132812 514.859375 432.125 520.898438 431.371094 521.527344 C 430.238281 522.53125 418.796875 525.171875 405.214844 527.5625 C 401.316406 528.316406 401.066406 527.5625 402.949219 520.519531 C 404.460938 514.734375 407.855469 496.878906 409.363281 487.070312 C 409.992188 482.921875 411 476.632812 411.628906 473.238281 C 414.394531 459.28125 418.167969 438.28125 421.9375 415.394531 C 422.695312 411.242188 423.699219 400.804688 424.328125 392.128906 C 425.335938 376.660156 426.214844 372.007812 428.101562 372.007812 C 428.605469 372.007812 429.863281 373.015625 430.992188 374.148438 Z M 415.652344 392.882812 C 418.039062 395.019531 418.667969 399.171875 417.285156 404.199219 C 416.65625 406.714844 416.027344 406.84375 401.316406 406.339844 C 387.230469 405.835938 380.820312 406.84375 383.082031 409.105469 C 383.585938 409.609375 391.128906 410.363281 399.808594 410.738281 L 415.777344 411.367188 L 414.898438 417.78125 C 414.519531 421.304688 413.765625 424.574219 413.261719 425.074219 C 411.753906 426.457031 398.925781 423.691406 392.261719 420.421875 C 385.722656 417.277344 374.027344 407.972656 374.027344 405.960938 C 374.027344 405.457031 377.550781 403.195312 381.949219 401.058594 C 386.226562 398.917969 392.890625 395.398438 396.664062 393.261719 C 404.335938 388.984375 411.125 388.859375 415.652344 392.882812 Z M 467.210938 395.777344 C 471.863281 398.417969 478.527344 401.9375 482.046875 403.445312 L 488.460938 406.464844 L 483.808594 411.242188 C 477.269531 417.90625 465.449219 424.320312 456.519531 425.957031 C 444.070312 428.21875 444.449219 428.472656 444.449219 419.164062 L 444.449219 410.992188 L 458.03125 410.867188 C 472.992188 410.738281 483.558594 409.609375 481.417969 408.097656 C 480.539062 407.597656 472.113281 406.96875 462.554688 406.589844 L 445.078125 406.085938 L 444.699219 399.675781 C 444.324219 394.015625 444.699219 393.261719 447.214844 392.253906 C 453.25 389.738281 458.785156 390.746094 467.210938 395.777344 Z M 498.648438 520.394531 C 510.089844 524.167969 514.238281 525.675781 518.890625 528.066406 C 520.148438 528.695312 521.660156 529.195312 522.289062 529.195312 C 522.917969 529.195312 527.445312 530.957031 532.347656 533.21875 C 539.265625 536.238281 541.277344 537.746094 541.277344 539.757812 C 541.277344 546.171875 553.097656 555.605469 561.144531 555.605469 C 567.054688 555.605469 567.054688 557.867188 561.144531 559.375 C 554.355469 561.261719 545.175781 559.503906 528.070312 553.089844 C 521.15625 550.449219 508.707031 546.171875 500.40625 543.65625 C 487.582031 539.507812 484.8125 539.003906 480.914062 540.136719 C 478.527344 540.890625 468.59375 543.785156 458.910156 546.800781 C 434.515625 554.222656 433.757812 554.222656 410.371094 553.464844 C 390.125 552.710938 389.371094 552.835938 384.339844 555.605469 C 381.449219 557.238281 378.808594 558.246094 378.429688 557.867188 C 377.046875 556.484375 382.203125 543.910156 385.472656 540.640625 C 388.992188 536.992188 390.628906 536.617188 418.667969 531.082031 C 427.722656 529.324219 444.324219 525.425781 455.765625 522.40625 C 467.210938 519.386719 478.902344 516.875 481.671875 516.746094 C 484.5625 516.746094 492.234375 518.382812 498.648438 520.394531 Z M 568.941406 552.964844 C 568.941406 554.222656 567.808594 554.472656 563.785156 553.84375 C 554.605469 552.335938 545.046875 546.046875 545.046875 541.519531 C 545.046875 539.632812 546.808594 540.136719 556.996094 545.167969 C 563.535156 548.4375 568.941406 551.957031 568.941406 552.964844 Z M 497.890625 548.5625 C 502.417969 550.195312 505.4375 553.089844 502.546875 553.089844 C 501.917969 553.089844 498.519531 555.605469 495 558.746094 C 490.851562 562.394531 487.957031 564.15625 486.699219 563.652344 C 485.570312 563.273438 484.6875 562.394531 484.6875 561.890625 C 484.6875 559.25 475.003906 556.484375 465.699219 556.484375 C 452.121094 556.484375 450.988281 555.101562 462.179688 551.832031 C 467.335938 550.324219 473.75 548.3125 476.515625 547.429688 C 482.046875 545.417969 490.097656 545.921875 497.890625 548.5625 Z M 519.519531 555.730469 C 530.335938 560.132812 530.585938 560.632812 524.929688 571.574219 C 520.777344 579.75 507.574219 594.585938 504.808594 594.460938 C 503.675781 594.460938 500.28125 589.054688 496.886719 582.261719 L 490.722656 570.066406 L 497.515625 564.03125 C 507.324219 554.976562 512.730469 553.089844 519.519531 555.730469 Z M 519.519531 555.730469 " fill-opacity="1" fill-rule="nonzero"/><path fill="#c9a24d" d="M 477.519531 630.425781 C 477.519531 634.574219 477.773438 636.085938 478.023438 633.820312 C 478.273438 631.558594 478.273438 628.160156 478.023438 626.277344 C 477.773438 624.390625 477.519531 626.277344 477.519531 630.425781 Z M 477.519531 630.425781 " fill-opacity="1" fill-rule="nonzero"/><path fill="#c9a24d" d="M 142.648438 732.910156 C 142.648438 733.539062 143.78125 734.671875 145.164062 735.425781 C 147.554688 736.683594 147.679688 738.066406 147.679688 761.835938 C 147.679688 785.347656 147.554688 787.109375 145.164062 789.5 C 143.78125 790.882812 142.648438 792.265625 142.648438 792.644531 C 142.648438 793.019531 153.714844 793.273438 167.167969 793.273438 L 191.566406 793.273438 L 192.320312 788.492188 C 192.824219 785.976562 193.703125 782.207031 194.457031 780.320312 C 196.722656 774.535156 193.828125 773.277344 190.558594 778.558594 C 189.050781 780.949219 186.660156 783.714844 185.027344 784.71875 C 182.132812 786.734375 165.15625 788.617188 162.015625 787.359375 C 159.246094 786.355469 159.375 738.949219 162.265625 736.179688 C 163.273438 735.050781 164.78125 734.167969 165.410156 734.167969 C 166.039062 734.167969 166.539062 733.539062 166.539062 732.910156 C 166.539062 732.15625 161.761719 731.652344 154.59375 731.652344 C 147.804688 731.652344 142.648438 732.15625 142.648438 732.910156 Z M 142.648438 732.910156 " fill-opacity="1" fill-rule="nonzero"/><path fill="#c9a24d" d="M 235.453125 733.792969 C 234.320312 735.050781 233.0625 737.3125 232.558594 738.949219 C 231.804688 741.714844 223.503906 759.570312 213.570312 780.195312 C 210.804688 785.851562 208.414062 789.5 206.78125 789.875 C 205.398438 790.253906 204.265625 791.386719 204.265625 792.515625 C 204.265625 794.152344 205.902344 794.527344 213.195312 794.527344 L 222.121094 794.527344 L 220.109375 791.386719 C 217.46875 787.359375 217.59375 784.71875 220.613281 778.433594 L 223.128906 773.152344 L 248.402344 773.152344 L 251.546875 780.195312 C 253.433594 784.59375 254.1875 787.863281 253.558594 788.746094 C 249.914062 793.398438 250.792969 793.898438 263.496094 794.152344 C 273.050781 794.277344 275.691406 794.027344 275.1875 792.769531 C 274.8125 791.886719 273.175781 790.503906 271.542969 789.75 C 268.523438 788.367188 260.851562 774.03125 248.53125 746.117188 C 242.117188 731.527344 239.601562 729.140625 235.453125 733.792969 Z M 241.109375 756.550781 C 243.625 761.960938 245.761719 766.988281 245.761719 767.871094 C 245.761719 768.875 242.746094 769.378906 235.703125 769.378906 C 230.042969 769.378906 225.644531 768.875 225.644531 768.121094 C 225.644531 767.492188 227.027344 763.847656 228.789062 760.074219 C 230.546875 756.300781 232.433594 751.773438 233.1875 750.011719 C 233.816406 748.253906 234.824219 746.742188 235.328125 746.742188 C 235.953125 746.742188 238.46875 751.144531 241.109375 756.550781 Z M 241.109375 756.550781 " fill-opacity="1" fill-rule="nonzero"/><path fill="#c9a24d" d="M 269.277344 732.535156 C 268.777344 732.910156 270.160156 734.421875 272.296875 735.679688 C 275.316406 737.5625 278.207031 742.34375 286.003906 758.566406 C 291.410156 769.757812 297.195312 782.332031 298.828125 786.480469 C 301.09375 792.015625 302.601562 794.027344 304.613281 794.277344 C 306.878906 794.65625 307.882812 793.648438 309.394531 789.875 C 310.523438 787.234375 314.171875 779.3125 317.566406 772.144531 C 320.960938 764.976562 323.726562 758.941406 323.726562 758.691406 C 323.726562 758.3125 326.117188 753.28125 328.882812 747.246094 C 332.53125 739.828125 335.046875 736.179688 337.058594 735.300781 C 342.96875 733.164062 340.074219 731.652344 330.015625 731.652344 C 320.460938 731.652344 317.0625 733.039062 322.472656 734.796875 C 325.238281 735.679688 325.867188 740.078125 323.855469 743.976562 C 321.214844 749.007812 317.441406 758.1875 317.441406 759.695312 C 317.441406 760.578125 316.9375 761.835938 316.308594 762.460938 C 315.679688 763.21875 314.046875 766.863281 312.664062 770.636719 C 311.40625 774.410156 309.644531 777.679688 309.015625 777.804688 C 308.386719 778.054688 306.5 775.289062 304.867188 771.640625 C 303.230469 767.996094 299.457031 759.695312 296.441406 753.15625 C 290.78125 740.707031 289.777344 736.179688 292.917969 734.921875 C 293.925781 734.546875 294.804688 733.667969 294.804688 732.910156 C 294.804688 731.527344 270.660156 731.023438 269.277344 732.535156 Z M 269.277344 732.535156 " fill-opacity="1" fill-rule="nonzero"/><path fill="#c9a24d" d="M 351.394531 732.785156 C 351.394531 733.414062 352.777344 734.292969 354.410156 734.671875 C 358.433594 735.679688 358.9375 739.074219 358.9375 765.105469 L 358.9375 786.859375 L 354.914062 790.628906 L 350.890625 794.277344 L 378.179688 794.277344 L 370.882812 787.988281 L 370.507812 767.117188 C 370.128906 743.222656 371.011719 736.683594 375.035156 734.671875 C 376.542969 733.917969 377.421875 732.910156 376.921875 732.535156 C 375.664062 731.277344 351.394531 731.527344 351.394531 732.785156 Z M 351.394531 732.785156 " fill-opacity="1" fill-rule="nonzero"/><path fill="#c9a24d" d="M 395.027344 732.535156 C 394.527344 733.039062 395.785156 734.042969 397.921875 734.921875 L 401.695312 736.558594 L 401.820312 755.167969 C 401.945312 786.480469 401.945312 787.234375 398.296875 791.007812 L 395.15625 794.277344 L 407.730469 794.152344 L 420.429688 794.027344 L 417.285156 790.378906 C 414.644531 787.234375 414.269531 785.601562 414.269531 776.167969 L 414.269531 765.605469 L 417.789062 765.605469 C 421.9375 765.605469 426.464844 770.007812 434.011719 781.324219 C 440.925781 791.636719 442.941406 793.144531 451.492188 794.527344 C 459.664062 795.914062 463.5625 794.277344 458.910156 791.511719 C 454.257812 788.871094 435.644531 768.375 435.644531 765.859375 C 435.644531 765.230469 438.035156 763.71875 440.800781 762.335938 C 449.605469 758.4375 453 749.761719 448.851562 741.714844 C 446.835938 737.816406 444.070312 735.929688 436.902344 733.289062 C 432.25 731.652344 396.539062 730.898438 395.027344 732.535156 Z M 429.988281 737.4375 C 433.003906 738.191406 438.160156 745.234375 438.160156 748.503906 C 438.160156 752.65625 434.261719 759.066406 430.867188 760.324219 C 426.214844 762.085938 418.292969 763.089844 416.027344 762.210938 C 414.644531 761.707031 414.269531 758.941406 414.269531 750.011719 C 414.269531 743.601562 414.644531 737.941406 415.148438 737.5625 C 416.15625 736.558594 426.464844 736.433594 429.988281 737.4375 Z M 429.988281 737.4375 " fill-opacity="1" fill-rule="nonzero"/><path fill="#c9a24d" d="M 500.785156 733.039062 C 499.527344 733.667969 498.519531 734.921875 498.519531 735.550781 C 498.519531 736.308594 495 743.976562 490.851562 752.78125 C 480.160156 774.910156 475.886719 784.34375 475.886719 785.726562 C 475.886719 786.355469 474.25 787.988281 472.113281 789.5 C 470.101562 791.007812 468.339844 792.769531 468.339844 793.398438 C 468.339844 794.027344 472.363281 794.527344 477.144531 794.527344 C 485.945312 794.527344 487.582031 793.648438 484.058594 790.757812 C 481.417969 788.617188 481.671875 785.476562 484.941406 778.808594 L 487.707031 773.027344 L 500.28125 773.402344 L 512.855469 773.78125 L 515.621094 780.695312 C 518.136719 786.859375 518.136719 787.738281 516.378906 790.378906 C 515.371094 792.015625 514.867188 793.648438 515.121094 794.027344 C 515.496094 794.277344 521.15625 794.402344 527.570312 794.277344 L 539.390625 793.898438 L 535.367188 790.378906 C 531.84375 787.109375 522.289062 768.375 509.335938 738.820312 C 506.191406 731.652344 504.808594 730.648438 500.785156 733.039062 Z M 505.1875 757.433594 C 507.699219 762.714844 509.839844 767.492188 509.839844 768.121094 C 509.839844 768.875 505.5625 769.378906 499.777344 769.378906 C 494.246094 769.378906 489.71875 769 489.71875 768.5 C 489.71875 766.109375 498.019531 748 499.148438 748 C 499.902344 748 502.546875 752.277344 505.1875 757.433594 Z M 505.1875 757.433594 " fill-opacity="1" fill-rule="nonzero"/><path fill="#c9a24d" d="M 547.5625 732.910156 C 547.5625 733.667969 548.945312 734.796875 550.582031 735.425781 C 555.738281 737.3125 556.367188 740.203125 556.367188 764.222656 L 556.367188 786.859375 L 553.097656 789.375 C 551.335938 790.757812 549.324219 792.140625 548.445312 792.390625 C 544.546875 793.773438 549.574219 794.65625 559.636719 794.277344 C 569.695312 793.898438 570.449219 793.773438 567.304688 792.390625 C 565.421875 791.511719 563.28125 789.375 562.652344 787.613281 C 561.144531 783.589844 561.019531 749.257812 562.402344 749.257812 C 563.40625 749.257812 580.007812 766.109375 600.128906 787.488281 C 611.445312 799.433594 611.695312 799.054688 611.695312 768.246094 C 611.695312 753.785156 612.199219 740.457031 612.828125 738.820312 C 613.582031 737.0625 615.21875 735.300781 616.601562 734.796875 C 622.257812 733.039062 618.738281 731.652344 608.550781 731.652344 C 598.242188 731.652344 594.46875 733.289062 600.882812 734.921875 C 605.785156 736.054688 606.792969 740.707031 606.414062 759.949219 L 606.039062 777.425781 L 584.660156 754.539062 L 563.28125 731.78125 L 555.484375 731.652344 C 550.832031 731.652344 547.5625 732.15625 547.5625 732.910156 Z M 547.5625 732.910156 " fill-opacity="1" fill-rule="nonzero"/><path fill="#c9a24d" d="M 631.3125 739.324219 C 630.308594 747.5 631.1875 750.140625 633.578125 746.242188 C 637.601562 739.449219 639.863281 737.941406 646.90625 737.691406 L 653.820312 737.3125 L 654.199219 762.335938 L 654.449219 787.359375 L 651.054688 791.007812 L 647.660156 794.527344 L 673.566406 794.527344 L 669.667969 790.882812 L 665.769531 787.234375 L 665.769531 762.589844 C 665.769531 734.546875 665.265625 735.550781 676.207031 737.4375 C 682.117188 738.445312 682.996094 739.074219 685.761719 743.976562 C 689.785156 751.398438 691.796875 749.386719 690.164062 739.578125 L 689.03125 732.28125 L 660.613281 731.90625 L 632.191406 731.652344 Z M 631.3125 739.324219 " fill-opacity="1" fill-rule="nonzero"/></svg>